HIERARCHY
ROOT Hips
{
  OFFSET 13.6774 106.653 -34.4427
  CHANNELS 6 Xposition Yposition Zposition Zrotation Xrotation Yrotation
  JOINT ToSpine
  {
    OFFSET -2.69724 7.43032 -0.144315
    CHANNELS 3 Zrotation Xrotation Yrotation
    JOINT Spine
    {
      OFFSET -0.0310711 10.7595 1.96963
      CHANNELS 3 Zrotation Xrotation Yrotation
      JOINT Spine1
      {
        OFFSET 19.9056 3.91189 0.764692
        CHANNELS 3 Zrotation Xrotation Yrotation
        JOINT Neck
        {
          OFFSET 25.9749 7.03908 -0.130764
          CHANNELS 3 Zrotation Xrotation Yrotation
          JOINT Head
          {
            OFFSET 9.52751 0.295786 -0.907742
            CHANNELS 3 Zrotation Xrotation Yrotation
            End Site
            {
              OFFSET 16.4037 0.713936 2.7358
            }
          }
        }
        JOINT LeftShoulder
        {
          OFFSET 17.7449 4.33886 11.7777
          CHANNELS 3 Zrotation Xrotation Yrotation
          JOINT LeftArm
          {
            OFFSET 0.911315 1.27913 9.80584
            CHANNELS 3 Zrotation Xrotation Yrotation
            JOINT LeftForeArm
            {
              OFFSET 28.6126 1.18197 -3.53199
              CHANNELS 3 Zrotation Xrotation Yrotation
              JOINT LeftHand
              {
                OFFSET 27.5088 0.0218783 0.327423
                CHANNELS 3 Zrotation Xrotation Yrotation
                End Site
                {
                  OFFSET 18.6038 -0.000155887 0.382096
                }
              }
            }
          }
        }
        JOINT RightShoulder
        {
          OFFSET 17.1009 2.89543 -12.2328
          CHANNELS 3 Zrotation Xrotation Yrotation
          JOINT RightArm
          {
            OFFSET 1.4228 0.178766 -10.211
            CHANNELS 3 Zrotation Xrotation Yrotation
            JOINT RightForeArm
            {
              OFFSET 28.733 1.87905 2.64907
              CHANNELS 3 Zrotation Xrotation Yrotation
              JOINT RightHand
              {
                OFFSET 27.4588 0.290562 -0.101845
                CHANNELS 3 Zrotation Xrotation Yrotation
                End Site
                {
                  OFFSET 17.8396 -0.255518 -0.000602873
                }
              }
            }
          }
        }
      }
    }
  }
  JOINT LeftUpLeg
  {
    OFFSET -5.61296 -2.22332 -10.2353
    CHANNELS 3 Zrotation Xrotation Yrotation
    JOINT LeftLeg
    {
      OFFSET 2.56703 -44.7417 -7.93097
      CHANNELS 3 Zrotation Xrotation Yrotation
      JOINT LeftFoot
      {
        OFFSET 3.16933 -46.5642 -3.96578
        CHANNELS 3 Zrotation Xrotation Yrotation
        JOINT LeftToeBase
        {
          OFFSET 0.346054 -6.02161 12.8035
          CHANNELS 3 Zrotation Xrotation Yrotation
          End Site
          {
            OFFSET 0.134235 -1.35082 5.13018
          }
        }
      }
    }
  }
  JOINT RightUpLeg
  {
    OFFSET -5.7928 -1.72406 10.6446
    CHANNELS 3 Zrotation Xrotation Yrotation
    JOINT RightLeg
    {
      OFFSET -2.57161 -44.7178 -7.85259
      CHANNELS 3 Zrotation Xrotation Yrotation
      JOINT RightFoot
      {
        OFFSET -3.10148 -46.5936 -4.03391
        CHANNELS 3 Zrotation Xrotation Yrotation
        JOINT RightToeBase
        {
          OFFSET -0.0828122 -6.13587 12.8035
          CHANNELS 3 Zrotation Xrotation Yrotation
          End Site
          {
            OFFSET -0.131328 -1.35082 5.13018
          }
        }
      }
    }
  }
}
MOTION
Frames: 21
Frame Time: 0.03333333333333333
0.0000 93.1000 0.0000 59.9999 -55.2503 -27.5275 -71.2547 -0.1195 88.0811 70.6376 65.8540 14.2072 7.4179 14.1079 9.2116 -118.4569 20.9042 169.8733 -151.7878 62.1081 -170.5141 -1.5672 -22.1802 -26.9612 -61.3491 40.2455 -148.4122 32.0975 -3.3622 -94.9752 0.0682 0.1857 0.2010 -2.0157 6.7696 34.1400 -102.7659 -30.4524 121.4935 10.3493 -4.5196 69.0592 0.0078 -0.4356 -0.0850 -60.1574 13.2381 114.4461 -2.2433 39.1296 1.9441 0.9534 -9.3882 -1.4605 6.9118 -16.0344 3.3456 -30.3714 -15.8201 79.2814 1.2439 43.5213 -6.2450 -16.2565 5.4315 1.5777 2.6665 -23.4251 8.9783 
0.0000 93.1000 0.0000 61.8297 -48.9289 -24.2404 -71.0410 0.0817 87.8342 65.6821 66.1293 16.0439 8.5555 13.7572 10.0214 -117.3926 19.2668 163.2890 -149.7716 62.7605 -175.0537 -1.7434 -22.2829 -28.4289 -58.7840 37.3911 -147.5389 32.2677 -3.7312 -95.9736 0.0257 0.5434 0.1832 -1.6291 5.8139 35.9749 -109.5634 -25.5409 121.2871 8.6720 -4.1897 66.1976 0.6580 -0.7748 0.5151 -56.9246 14.8746 111.4249 -3.0790 41.4348 -5.9585 -0.5106 -11.9836 -1.8725 7.5237 -16.7603 5.2745 -31.5050 -12.3216 91.4505 1.8323 41.1141 2.8851 -9.9625 6.9038 1.1318 3.6695 -24.9009 1.4421 
0.0000 93.1000 0.0000 64.8975 -43.1400 -20.2352 -71.1840 -0.3931 87.8993 64.6476 67.2688 14.4293 8.4216 15.1111 9.8772 -117.0781 19.5660 158.7348 -154.2332 64.4497 -173.0132 -2.2801 -22.9820 -30.4572 -59.2925 32.3203 -143.4050 31.5984 -4.0964 -95.9761 0.1014 0.7068 0.1814 -1.9409 5.5045 35.8337 -116.9364 -21.1641 118.1821 7.6813 -3.4757 63.5162 0.4705 -0.9430 0.3251 -51.0470 14.1791 107.7139 -3.9863 44.6732 -6.5874 0.6809 -14.8705 -2.0020 6.1992 -14.9659 5.8483 -32.3305 -13.1018 93.5824 1.0999 39.9440 1.1744 -8.0651 6.8379 0.4632 2.3478 -20.1635 2.9125 
0.0000 93.1000 0.0000 66.8777 -38.1750 -16.3577 -71.2901 -0.9775 87.7738 74.3333 68.6845 8.8478 6.9669 17.4284 6.8102 -115.3997 18.4114 151.7302 -155.4955 66.1123 -172.1936 -2.6899 -23.0395 -30.5754 -57.3025 29.2357 -144.7118 31.7243 -4.1670 -95.8744 -0.2211 0.7823 0.3455 -2.5060 5.9917 38.8349 -125.1232 -14.9047 114.2670 4.7927 -3.8582 61.4463 0.2108 -1.0993 0.0215 -46.9401 12.7316 102.7556 -4.2296 49.1589 -6.0993 2.0208 -17.1442 -2.0495 5.5602 -15.0807 6.8000 -32.6847 -15.7441 87.6067 -0.1275 40.6388 -8.0194 -9.8779 3.2381 0.3411 0.7595 -16.4765 17.8368 
0.0000 93.1000 0.0000 66.7299 -35.0970 -15.1290 -71.1121 -1.1264 87.7943 80.4334 70.2308 3.9842 6.1268 19.2004 5.3132 -114.3492 18.2172 147.4447 -160.8065 68.0164 -167.7613 -2.9742 -22.6042 -31.4310 -56.7710 27.2632 -143.4147 30.0982 -4.1412 -95.8419 -0.6953 1.6491 0.5302 -2.0901 6.0021 40.6084 -130.4490 -8.9026 112.1561 3.6880 -3.9546 59.1073 0.7598 -2.0484 0.8180 -43.6442 12.7596 100.4573 -4.6281 53.0300 -7.6538 1.4629 -18.1894 -3.1221 4.7668 -14.9491 11.6541 -33.1363 -18.6242 82.5594 0.1384 40.1595 -8.7888 -13.3797 1.2931 1.4726 1.3567 -16.5981 18.7873 
0.0000 93.1000 0.0000 68.1397 -34.0080 -14.9057 -70.8918 -0.9054 87.8390 85.5571 71.8234 0.1385 5.1414 20.5762 4.1892 -114.0041 18.6823 148.7012 -170.9361 68.7980 -158.4659 -2.5936 -22.0858 -30.9110 -57.1180 27.2665 -142.3162 29.3678 -4.4799 -96.7846 -0.2434 0.8904 0.2471 -2.7912 6.6417 42.4315 -133.2766 -4.1583 111.3358 1.9149 -1.8440 54.1925 0.4141 -1.0743 0.4616 -41.9712 13.2284 102.3181 -5.5269 53.7803 -9.6462 2.1232 -17.9880 -2.4971 5.5684 -15.4598 14.0840 -32.2417 -20.6430 82.0273 -0.1030 42.2471 -7.8292 -11.7498 1.2522 1.1815 1.2157 -15.0295 18.1313 
0.0000 93.1000 0.0000 68.9954 -32.0697 -13.4645 -70.6395 1.4118 87.6407 89.6511 72.2237 -4.3011 5.6995 21.0669 3.8762 -114.3847 20.1284 149.9312 -175.3652 69.4801 -153.6068 0.0026 -21.6200 -31.2504 -57.5291 27.6550 -140.6188 28.1595 -4.6263 -98.2258 0.3064 -2.5605 -0.5513 -3.9025 7.4399 42.8661 -135.2789 -1.0948 111.9265 0.1583 -0.6633 50.4237 -0.8640 3.0441 -0.9743 -40.9320 15.3249 101.6718 -5.8870 56.1076 -7.9216 2.3763 -18.9499 -0.1545 4.9095 -13.8467 16.2221 -32.7551 -23.2028 79.1581 0.8265 43.6467 -6.9515 -10.7935 0.9975 0.7153 0.3629 -16.1310 17.8504 
0.0000 93.1000 0.0000 69.7405 -30.2435 -11.0892 -70.8328 -0.4100 87.8043 90.2733 72.4465 -4.2227 4.8064 20.6675 4.2034 -113.2201 20.9532 150.9904 176.8727 69.6909 -145.9989 -2.2891 -21.9832 -32.0404 -57.3195 29.2518 -139.5819 28.4271 -5.5967 -98.9189 0.2325 0.3981 0.7267 -3.2932 6.6758 43.2613 -136.1237 2.3932 111.2974 -0.9236 -0.7877 47.0843 0.5606 -0.4926 0.0573 -39.1069 15.7310 101.3795 -5.9669 57.1680 -9.8818 1.1960 -18.7866 -2.1090 2.9076 -10.7604 13.7970 -34.6870 -26.2659 73.6283 1.1531 44.7362 -3.9455 -12.3673 1.2263 1.2002 1.4989 -16.3834 16.4418 
0.0000 93.1000 0.0000 70.4093 -28.1014 -10.4724 -70.7123 -0.2247 87.8242 86.7457 73.0677 -2.1734 5.6208 20.8152 4.3347 -114.2195 20.9423 150.0253 176.0946 69.0778 -143.1290 -2.1285 -21.6192 -32.0991 -57.6980 29.3242 -139.6672 26.4292 -5.7908 -99.8527 -0.3262 0.5153 0.3774 -2.9993 7.0022 43.3560 -136.7945 2.6106 110.4525 0.6352 -1.5901 45.2467 0.6778 -0.6173 0.2867 -39.4236 15.1127 99.6500 -6.9944 57.9436 -10.9669 1.2423 -18.0204 -2.4041 3.3390 -12.9251 12.5957 -34.2091 -28.0472 71.9695 0.8177 46.0117 -2.8934 -12.6131 0.2531 1.5447 1.7122 -16.2927 15.6549 
0.0000 93.1000 0.0000 70.7575 -26.8466 -9.5739 -70.8132 -0.5314 87.6504 86.4787 72.8216 -2.0546 6.1346 21.1866 3.6871 -114.2459 21.2174 149.9284 175.2900 69.1294 -143.7362 -2.1766 -21.5447 -31.8818 -57.0913 29.3301 -139.3478 26.2432 -5.9308 -100.2448 -0.5206 -0.0212 0.1751 -3.6980 7.1870 43.9078 -138.4918 1.4917 109.3485 0.8170 -1.9269 44.3302 -0.0774 -0.0542 -0.4740 -38.5240 15.3152 98.0613 -6.8772 58.6068 -10.9810 1.1291 -18.1573 -1.6194 3.7516 -12.4584 11.6908 -35.2469 -29.2294 70.2904 0.9651 47.1534 -3.9627 -12.0745 -0.9758 0.8930 0.8496 -16.0489 15.8297 
0.0000 93.1000 0.0000 70.6841 -26.2334 -9.3251 -70.8689 -0.7917 87.7771 88.4178 73.1099 -2.9775 5.7323 21.4909 3.0978 -115.3050 21.8086 149.2111 176.1394 69.3349 -145.2502 -2.4699 -20.9443 -30.9741 -57.0796 29.9508 -140.3546 25.3978 -5.3763 -100.0095 -0.5778 0.5036 0.2616 -3.5204 6.6079 45.0478 -138.9662 2.8280 108.5559 1.3902 -2.8287 43.9039 0.0517 -0.6418 -0.1220 -37.3064 15.8480 98.0194 -7.4743 59.0349 -11.1778 1.0919 -18.4434 -2.1035 4.0490 -12.7272 10.4192 -35.6018 -28.6703 70.0877 0.6289 47.1318 -4.2962 -10.9472 -0.9705 0.8416 0.8721 -16.0947 15.1327 
0.0000 93.1000 0.0000 70.9851 -25.0268 -8.4209 -70.9738 -0.3399 87.8181 87.8781 72.0149 -2.6313 6.2475 21.0682 2.3892 -115.3942 22.4219 150.6224 174.5201 69.4255 -145.6576 -1.9848 -21.1553 -31.3108 -57.3525 29.8083 -141.4390 24.8553 -5.1028 -100.4297 -0.0340 -0.1864 0.3230 -3.6796 7.1724 45.0972 -139.9384 3.4913 108.1177 1.8282 -2.9752 43.0627 -0.0590 0.1751 -0.3585 -36.6411 15.7773 97.1308 -6.8252 58.3046 -12.1050 1.5115 -18.0402 -1.6432 4.0334 -13.2273 11.7129 -36.1741 -28.1601 70.0973 0.8471 47.1319 -4.8803 -10.9413 -1.2107 0.6680 0.6774 -15.6840 16.2241 
0.0000 93.1000 0.0000 71.0042 -24.9133 -8.2338 -70.9831 -0.4931 87.8901 88.4496 71.7855 -3.6590 5.5272 21.2251 2.5922 -116.2282 22.9946 150.5724 173.5939 69.9274 -145.2740 -2.2097 -21.0482 -31.1886 -58.3969 29.7772 -140.2912 23.7939 -5.0561 -100.3126 -0.0814 0.1114 0.2311 -3.5129 7.1412 44.3102 -140.9293 1.7947 107.3798 1.5576 -3.1613 42.7616 -0.0986 -0.1710 0.1131 -36.1367 15.4949 95.7891 -6.8228 58.5932 -10.9270 0.9875 -17.9514 -1.9268 4.8172 -13.5487 11.3925 -36.2923 -28.1395 68.9153 1.4862 47.4210 -5.0095 -10.5446 -2.0260 0.6818 1.1037 -16.1111 15.5869 
0.0000 93.1000 0.0000 70.6982 -24.0525 -7.2369 -70.9919 -0.9392 87.8677 87.2835 71.8555 -1.8472 5.7715 20.9183 1.8521 -116.2424 23.3861 151.4036 171.8854 70.1997 -143.1488 -2.5182 -21.3205 -31.7453 -58.2149 30.2159 -140.3249 23.4796 -4.5499 -100.2092 -0.3603 0.1373 0.3278 -3.8906 6.9614 44.3875 -141.1190 1.5877 107.4751 1.9990 -3.1240 42.7340 -0.3250 -0.1908 -0.0607 -36.1565 15.9251 95.1585 -7.4080 59.0088 -11.9497 1.1277 -17.1396 -1.4995 5.4922 -13.2462 11.2435 -36.8315 -28.5137 68.0036 0.9441 47.0663 -4.9971 -10.9463 -1.4129 0.1382 0.8541 -16.1674 17.2930 
0.0000 93.1000 0.0000 70.8600 -24.0456 -7.6833 -70.9004 -0.5174 87.9186 86.2772 71.7712 -0.8499 5.6978 20.6965 2.6147 -116.2106 23.0825 150.9792 172.2990 69.9612 -143.4671 -2.3026 -21.2056 -31.1693 -58.3871 30.4116 -140.1175 23.2357 -4.3046 -99.8230 -0.1884 0.1337 -0.0870 -3.5106 6.8397 44.2916 -140.9974 1.5640 107.0097 2.2059 -3.2581 42.9937 0.0157 -0.2347 -0.0080 -36.2950 16.0874 95.0738 -7.0180 58.9483 -12.2875 1.4816 -16.8550 -1.8246 4.9720 -13.2379 10.7266 -37.0854 -28.6982 67.0191 1.1476 46.1099 -4.4884 -11.6372 -1.5912 0.7591 1.0119 -16.6256 17.9349 
0.0000 93.1000 0.0000 71.0090 -23.7708 -7.0477 -70.8806 -0.1077 87.7409 87.0744 72.0210 -1.5719 5.3726 20.9315 3.2428 -116.4651 23.0173 151.3644 173.6910 69.9421 -144.1194 -1.8570 -21.3635 -31.0149 -58.3549 30.4868 -140.4417 23.4983 -4.5605 -99.2469 -0.1316 -0.2705 -0.1746 -3.5033 6.9286 44.1715 -141.2524 1.5672 107.1208 2.0562 -3.1368 43.5867 -0.0755 0.2419 0.0505 -35.9849 15.7508 95.1536 -7.0905 58.6568 -11.7790 1.3493 -17.0192 -1.6780 4.7808 -12.9067 10.6988 -36.7941 -28.7015 66.9630 0.6227 46.0755 -4.8809 -11.8009 -2.3524 1.1834 0.7568 -16.7944 19.4357 
0.0000 93.1000 0.0000 70.9069 -23.8748 -7.1392 -70.8911 -0.0682 87.8011 87.0949 72.2582 -1.3766 4.8975 21.1061 3.4092 -117.1491 23.1316 150.3382 173.9790 70.0463 -144.4550 -1.7107 -21.0899 -31.2037 -58.1787 30.1212 -141.5014 23.3295 -5.0307 -99.4695 -0.0971 -0.1652 0.0985 -3.3529 6.6903 43.9573 -141.5139 0.7769 106.2932 1.9967 -3.3906 43.9915 0.0095 0.1783 0.0193 -35.9651 15.8199 95.1103 -7.1483 58.6659 -12.0386 1.0933 -16.5496 -1.7465 5.0440 -14.5216 12.2863 -37.2715 -28.3397 67.0795 0.7420 46.4394 -4.7555 -11.1135 -2.4847 1.0660 0.8131 -16.5916 18.5159 
0.0000 93.1000 0.0000 71.1726 -24.1445 -6.8584 -71.0517 -0.2153 87.8943 87.0320 71.8306 -2.0425 4.9785 21.0975 2.9898 -116.2737 23.1836 150.6096 173.0728 70.1349 -144.3708 -1.7482 -21.2059 -31.1335 -58.6045 29.1324 -140.8799 23.3742 -4.6552 -99.2204 0.2301 -0.1239 0.4991 -3.5457 7.0051 44.4001 -142.0204 1.8599 106.4099 1.7437 -3.6658 44.0656 -0.2198 0.1204 -0.2047 -36.2805 16.1881 94.8895 -7.0012 59.0049 -12.0228 0.5601 -17.0371 -1.5653 4.9636 -14.0619 12.2442 -37.7576 -27.8895 67.0332 0.7838 46.0739 -4.7310 -11.1306 -2.2917 0.8564 1.0801 -17.2175 18.6023 
0.0000 93.1000 0.0000 71.2827 -24.0310 -6.9664 -71.0862 0.2650 87.9617 86.0542 71.9135 -1.5846 5.0106 20.9814 3.0145 -117.2291 23.7708 151.6582 171.2044 70.3548 -143.6292 -1.1158 -20.7758 -30.9288 -58.2951 29.4891 -140.2543 23.8564 -4.7561 -99.1350 0.5559 -0.5912 0.2616 -3.4573 7.2784 44.5685 -142.3969 1.0915 106.4835 2.2254 -3.3175 43.6160 -0.3215 0.6665 -0.4096 -36.0304 16.1257 94.8149 -6.7084 58.8492 -12.0676 0.7751 -16.8373 -1.4528 5.1645 -13.8633 10.7835 -37.5933 -27.8149 66.8879 0.9565 46.1759 -4.8362 -10.8955 -2.6327 0.8911 1.1224 -16.8381 19.0114 
0.0000 93.1000 0.0000 71.2732 -24.0575 -6.9524 -71.1782 -0.0078 87.9588 85.8262 72.0280 -1.4725 4.9788 21.0081 3.3820 -117.3610 24.0264 151.9577 173.1577 70.4379 -144.5347 -1.4432 -21.2654 -31.2410 -58.2848 29.4002 -141.2396 23.9616 -4.5901 -99.2115 0.1044 -0.1981 0.5468 -3.4093 7.0675 44.1554 -142.0205 0.9322 106.6086 1.7594 -2.9662 43.7015 -0.5145 0.2170 -0.2669 -35.9231 16.0807 94.2692 -7.1396 58.7213 -11.9183 0.9332 -17.0997 -1.6531 4.7384 -13.2799 11.0019 -37.4094 -28.1166 67.0576 0.7940 46.1018 -4.8933 -10.6810 -2.8784 0.7164 0.7021 -16.1645 19.3513 
0.0000 93.1000 0.0000 71.1719 -23.9235 -6.9081 -71.2949 -0.0295 88.1103 85.0471 71.9513 -0.8353 5.3112 21.0911 2.9206 -117.1810 24.0696 150.6033 175.1428 70.8861 -147.3699 -1.3979 -21.3463 -30.9754 -57.4568 29.3621 -141.3389 24.2887 -4.8886 -99.1903 -0.5892 -0.1045 0.4736 -3.3101 7.1758 44.1400 -141.5761 0.7363 106.8989 2.5412 -3.4483 43.7603 -0.3658 0.1411 -0.1751 -36.0450 16.0236 93.9093 -7.1933 58.4963 -11.2775 1.1791 -17.8725 -1.7634 4.8426 -13.2676 11.4673 -37.0827 -28.2235 66.9851 1.2402 46.1525 -5.0303 -10.8260 -2.2218 0.7220 0.8581 -16.6568 18.0724 
